<svg width="297" height="253" viewBox="0 0 297 253" fill="none" xmlns="http://www.w3.org/2000/svg">
<path d="M204.394 0C212.666 0.00036421 220.774 2.30406 227.81 6.65234C234.847 11.0007 240.534 17.2221 244.234 24.6201L264.771 65.6787C268.394 64.1938 272.002 62.6934 275.506 60.9561C279.031 59.1957 283.111 58.9078 286.848 60.1553C290.585 61.4028 293.674 64.0839 295.434 67.6084C297.194 71.1331 297.483 75.2131 296.236 78.9502C294.988 82.6874 292.306 85.7757 288.782 87.5361C281.446 91.189 278.09 92.3184 278.09 92.3184L292.287 120.725C295.39 126.917 296.994 133.733 296.994 140.652V178.191C296.993 184.459 295.67 190.656 293.112 196.377C290.553 202.098 286.816 207.216 282.144 211.395V230.164C282.144 236.071 279.798 241.737 275.621 245.914C271.443 250.091 265.778 252.437 259.871 252.438C253.963 252.438 248.298 250.091 244.121 245.914C239.943 241.737 237.596 236.071 237.596 230.164V222.739H59.4057V230.164C59.4056 236.071 57.0584 241.737 52.8813 245.914C48.7041 250.091 43.0386 252.438 37.1313 252.438C31.224 252.437 25.5584 250.091 21.3813 245.914C17.2042 241.737 14.8579 236.071 14.8578 230.164V211.395C5.74042 203.227 0.00827664 191.378 0.00823684 178.191V140.652C0.0110119 133.739 1.6224 126.922 4.71527 120.739L18.9116 92.3184C15.3137 90.8297 11.758 89.2401 8.24945 87.5518C6.49919 86.6834 4.93735 85.4779 3.65374 84.0049C2.37012 82.5318 1.38974 80.8194 0.768979 78.9668C0.148262 77.1142 -0.100398 75.157 0.0365572 73.208C0.173551 71.259 0.693122 69.3559 1.56683 67.6084C3.36323 64.0992 6.47003 61.4388 10.2133 60.2021C13.9565 58.9656 18.0365 59.2526 21.5698 61.001C25.074 62.6838 28.6276 64.2433 32.2309 65.6787L52.768 24.6201C56.4683 17.2222 62.1553 11.0007 69.1918 6.65234C76.2283 2.30408 84.3362 0.000346606 92.6078 0H204.394ZM119.412 120.297C113.406 120.297 108.431 121.328 104.488 123.391C100.544 125.453 97.5863 128.244 95.6147 131.763C93.6734 135.281 92.688 139.225 92.6577 143.593H107.354C107.961 139.862 109.341 137.162 111.495 135.494C113.678 133.796 116.196 132.946 119.047 132.946C121.838 132.946 124.037 133.689 125.645 135.176C127.253 136.662 128.057 138.542 128.057 140.817C128.057 142.668 127.435 144.276 126.191 145.641C124.947 146.975 123.309 148.218 121.277 149.371C119.245 150.493 117 151.632 114.543 152.784C112.117 153.907 109.674 155.15 107.217 156.515C104.791 157.849 102.561 159.412 100.529 161.201C98.4964 162.991 96.8583 165.1 95.6147 167.526C94.3712 169.923 93.7494 172.79 93.7494 176.126V187H144.073V174.123H111.039V173.805C111.04 172.046 111.631 170.544 112.814 169.301C114.027 168.057 115.62 166.935 117.591 165.934C119.593 164.933 121.778 163.932 124.144 162.931C126.51 161.93 128.86 160.823 131.196 159.609C133.562 158.396 135.731 156.954 137.703 155.286C139.704 153.588 141.297 151.555 142.48 149.189C143.693 146.823 144.3 143.987 144.3 140.681C144.3 136.647 143.299 133.098 141.297 130.034C139.295 126.971 136.429 124.589 132.698 122.891C128.997 121.162 124.568 120.297 119.412 120.297ZM181.733 121.207L152.021 161.065V173.441H182.005L181.96 187H196.793V173.441H206.621V160.655H196.793V121.207H181.733ZM182.096 160.655H166.217L182.096 139.452V160.655ZM92.6078 29.6982C89.851 29.6998 87.1487 30.4687 84.8041 31.9189C82.4596 33.3692 80.5658 35.4441 79.3334 37.9102L60.4741 75.583C83.4606 82.4879 114.436 89.0956 148.5 89.0957C182.564 89.0957 213.54 82.4879 236.512 75.583L217.668 37.9102C216.436 35.4441 214.542 33.3692 212.198 31.9189C209.853 30.4687 207.151 29.6998 204.394 29.6982H92.6078Z" fill="url(#paint0_linear_1_45)"/>
<defs>
<linearGradient id="paint0_linear_1_45" x1="149" y1="101" x2="149" y2="214" gradientUnits="userSpaceOnUse">
<stop stop-color="#57BBF0"/>
<stop offset="1" stop-color="#0496FD"/>
</linearGradient>
</defs>
</svg>
